<svg version="1.2" xmlns="http://www.w3.org/2000/svg" viewBox="0 0 300 300" width="256" height="256"><style>.a{fill:#8ec5ff}.b{fill:#d8f999}.c{fill:#ffa2a2}.d{fill:#fee685}.e{fill:#c4b4ff}.f{fill:#ffb86a}</style><path class="a" d="m100 200v100h-100v-100zm0 0v100h-100v-100zm0 0v100h-100v-100z"/><path class="b" d="m200 200v100h-100v-100zm0 0v100h-100v-100zm0 0v100h-100v-100z"/><path class="c" d="m300 200v100h-100v-100zm0 0v100h-100v-100zm0 0v100h-100v-100z"/><path class="d" d="m300 100v100h-100v-100zm0 0v100h-100v-100zm0 0v100h-100v-100z"/><path class="e" d="m300 0v100h-100v-100zm0 0v100h-100v-100zm0 0v100h-100v-100z"/><path class="f" d="m200 100v100h-100v-100zm0 0v100h-100v-100zm0 0v100h-100v-100z"/></svg>