<svg xmlns="http://www.w3.org/2000/svg" viewBox="0 0 828 909" width="828" height="909"><defs></defs><g transform="matrix(1,0,0,1,-142.849451146,-93.872883303)">
<g>
	<g>
		<animateTransform attributeName="transform" type="translate" values="0 0;0 -4;0 0;0 4;0 0" dur="3.8s" begin="0s" repeatCount="indefinite" additive="sum"/>
		<g transform="matrix(0.993035379,-0.117816535,0.117816535,0.993035379,20.526056781,152.801427605)">
			<path d="M183.70259865,250.49440122000001 C183.70259865,250.49440122000001 183.70259865,443.15797316 183.70259865,443.15797316 C183.70259865,443.15797316 377.49886299,443.15797316 377.49886299,443.15797316 C377.49886299,443.15797316 377.49886299,250.49440122000001 377.49886299,250.49440122000001 C377.49886299,250.49440122000001 183.70259865,250.49440122000001 183.70259865,250.49440122000001 ZM247.14844715,303.3504315 C247.14844715,303.3504315 295.88317775,303.3504315 295.88317775,303.3504315 C295.88317775,303.3504315 295.88317775,359.32550106 295.88317775,359.32550106 C295.88317775,359.32550106 247.14844715,359.32550106 247.14844715,359.32550106 C247.14844715,359.32550106 247.14844715,303.3504315 247.14844715,303.3504315 ZM325.00738502,303.3504315 C325.00738502,303.3504315 361.06716247,303.3504315 361.06716247,303.3504315 C361.06716247,303.3504315 361.06716247,359.32550107000003 361.06716247,359.32550107000003 C361.06716247,359.32550107000003 325.00738502,359.32550107000003 325.00738502,359.32550107000003 C325.00738502,359.32550107000003 325.00738502,303.3504315 325.00738502,303.3504315 Z" fill="#fff085"/>
		</g>
		<g transform="matrix(0.993035379,-0.117816535,0.117816535,0.993035379,20.526056781,152.801427605)">
			<path d="M167.81248529734657,315.23170825571873 L199.5927119926607,315.23170825571873 L199.5927119926607,393.7495589203939 L167.81248529734657,393.7495589203939 L167.81248529734657,315.23170825571873 Z" fill="#ffb86a" fill-opacity="0.563"/>
		</g>
	</g>
	<g>
		<animateTransform attributeName="transform" type="translate" values="0 0;0 -3;0 0;0 3;0 0" dur="3.2s" begin="0.3s" repeatCount="indefinite" additive="sum"/>
		<path d="M334.6066808490798,806.738186974953 L392.8002277538019,803.5499814792549 L395.9026770021055,860.178240258146 L337.7091300973834,863.3664457538441 L334.6066808490798,806.738186974953 Z" fill="#ffb86a" fill-opacity="0.563"/>
	</g>
	<g>
		<animateTransform attributeName="transform" type="translate" values="0 0;0 -5;0 0;0 5;0 0" dur="4.1s" begin="0.7s" repeatCount="indefinite" additive="sum"/>
		<path d="M510.1086119379463,517.9155299754752 L539.9999999999982,539.9999999999974 L475.9659544019686,626.6702485515129 L446.0745663399167,604.5857785269908 L510.1086119379463,517.9155299754752 Z" fill="#fff085" fill-opacity="0.697"/>
	</g>
	<g>
		<animateTransform attributeName="transform" type="translate" values="0 0;0 -4;0 0;0 4;0 0" dur="3.5s" begin="1.1s" repeatCount="indefinite" additive="sum"/>
		<path d="M268.42438298842137,617.003646467451 L242.0428174567988,643.1805809067796 L166.14264816845449,566.6870826103053 L192.52421370007704,540.5101481709767 L268.42438298842137,617.003646467451 Z" fill="#fff085" fill-opacity="0.697"/>
	</g>
	<g>
		<animateTransform attributeName="transform" type="translate" values="0 0;0 -3;0 0;0 3;0 0" dur="2.9s" begin="0.5s" repeatCount="indefinite" additive="sum"/>
		<path d="M414.7501666120125,605.3775948463746 L472.6250791807802,598.5111510220585 L479.30682962315683,654.8293460809667 L421.43191705438915,661.6957899052828 L414.7501666120125,605.3775948463746 Z" fill="#ffb86a" fill-opacity="0.563"/>
	</g>
	<g>
		<animateTransform attributeName="transform" type="translate" values="0 0;0 -5;0 0;0 5;0 0" dur="3.7s" begin="0.8s" repeatCount="indefinite" additive="sum"/>
		<path d="M258.44991237202254,627.604273251558 L452.02707653602096,618.3915868812652 L461.1859169762528,810.837339204681 L267.6087528122544,820.0500255749738 L258.44991237202254,627.604273251558 Z" fill="#fff085"/>
	</g>
	<g>
		<animateTransform attributeName="transform" type="translate" values="0 0;0 -4;0 0;0 4;0 0" dur="4.3s" begin="0.2s" repeatCount="indefinite" additive="sum"/>
		<path d="M324.3999067698467,522.3440579762602 L381.4351077251019,522.3440579762602 L381.4351077251019,630.1034704636708 L324.3999067698467,630.1034704636708 L324.3999067698467,522.3440579762602 Z" fill="#fff085" fill-opacity="0.697"/>
	</g>
	<g>
		<animateTransform attributeName="transform" type="translate" values="0 0;0 -3;0 0;0 3;0 0" dur="3.1s" begin="1.3s" repeatCount="indefinite" additive="sum"/>
		<path d="M239.486926704037,620.4368683796087 L297.3618392728047,613.5704245552926 L304.0435897151813,669.8886196142008 L246.16867714641364,676.7550634385169 L239.486926704037,620.4368683796087 Z" fill="#ffb86a" fill-opacity="0.563"/>
	</g>
	<g>
		<animateTransform attributeName="transform" type="translate" values="0 0;0 -4;0 0;0 4;0 0" dur="3.6s" begin="0.6s" repeatCount="indefinite" additive="sum"/>
		<path d="M356.6830057438572,474.76443209163074 L387.25147603299575,471.1377020505919 L389.63593308769447,491.2354771282776 L359.06746279855594,494.86220716931643 L356.6830057438572,474.76443209163074 Z" fill="#ffa2a2"/>
	</g>
	<g>
		<animateTransform attributeName="transform" type="translate" values="0 0;0 -3;0 0;0 3;0 0" dur="4.0s" begin="0.9s" repeatCount="indefinite" additive="sum"/>
		<path d="M332.21713809094325,441.351648718944 L347.85160073313665,441.351648718944 L347.85160073313665,464.15269613791537 L332.21713809094325,464.15269613791537 L332.21713809094325,441.351648718944 Z" fill="#27272a" fill-opacity="0.478"/>
	</g>
	<g>
		<animateTransform attributeName="transform" type="translate" values="0 0;0 -4;0 0;0 4;0 0" dur="3.3s" begin="1.5s" repeatCount="indefinite" additive="sum"/>
		<path d="M400.21129697012486,434.1540736800277 L413.18524920397886,434.1540736800277 L413.18524920397886,456.9551210989991 L400.21129697012486,456.9551210989991 L400.21129697012486,434.1540736800277 Z" fill="#27272a" fill-opacity="0.478"/>
	</g>
	<g>
		<animateTransform attributeName="transform" type="translate" values="0 0;0 -5;0 0;0 5;0 0" dur="3.9s" begin="0.4s" repeatCount="indefinite" additive="sum"/>
		<path d="M200.1832872825786,355.1821510834511 L450.5047466882944,325.48330295149316 L457.1864971306711,381.8014980104016 L206.86503772495527,411.50034614235955 L200.1832872825786,355.1821510834511 Z" fill="#ffb86a" fill-opacity="0.563"/>
	</g>
	<g>
		<animateTransform attributeName="transform" type="translate" values="0 0;0 -3;0 0;0 3;0 0" dur="2.8s" begin="1.0s" repeatCount="indefinite" additive="sum"/>
		<path d="M259.6997956563891,332.6917298189535 L376.7831685324907,318.8006262832038 L379.16762558718943,338.8984013608896 L262.0842527110878,352.78950489663924 L259.6997956563891,332.6917298189535 Z" fill="#ffa2a2"/>
	</g>
	<g>
		<animateTransform attributeName="transform" type="translate" values="0 0;0 -4;0 0;0 4;0 0" dur="4.2s" begin="0.1s" repeatCount="indefinite" additive="sum"/>
		<path d="M520.2963656682729,410.63878201226544 L557.294654665878,414.1523994914271 L547.1069009355487,521.4291474546366 L510.1086119379435,517.9155299754749 L520.2963656682729,410.63878201226544 Z" fill="#fff085" fill-opacity="0.697"/>
	</g>
	<g>
		<animateTransform attributeName="transform" type="translate" values="0 0;0 -5;0 0;0 5;0 0" dur="3.4s" begin="1.2s" repeatCount="indefinite" additive="sum"/>
		<path d="M142.84945114645467,437.9151783068889 L179.75224149530146,433.51029907934446 L192.5242137000771,540.510148170978 L155.6214233512303,544.9150273985224 L142.84945114645467,437.9151783068889 Z" fill="#fff085" fill-opacity="0.697"/>
	</g>
	<g>
		<animateTransform attributeName="transform" type="translate" values="0 0;0 -3;0 0;0 3;0 0" dur="3.0s" begin="0.7s" repeatCount="indefinite" additive="sum"/>
		<path d="M317.04447877712175,867.2118425735146 L415.2545590964667,867.6152474533377 L414.70246004818205,1002.0253515156639 L316.4923797288371,1001.6219466358408 L317.04447877712175,867.2118425735146 Z" fill="#bedbff" fill-opacity="0.572"/>
	</g>
	<g>
		<animateTransform attributeName="transform" type="translate" values="0 0;0 -4;0 0;0 4;0 0" dur="4.4s" begin="0.3s" repeatCount="indefinite" additive="sum"/>
		<path d="M336.2153261637907,867.2905881906722 L396.08371170979416,867.5365018361745 L395.7455504897996,949.8628251843593 L335.8771649437961,949.616911538857 L336.2153261637907,867.2905881906722 Z" fill="#bedbff" fill-opacity="0.556"/>
	</g>
	<g>
		<animateTransform attributeName="transform" type="translate" values="0 0;0 -5;0 0;0 5;0 0" dur="3.6s" begin="0.9s" repeatCount="indefinite" additive="sum"/>
		<g transform="matrix(0.715497211,0,0,0.692539045,279.550959467,197.555709409)">
			<path d="M556.5589469568207,253.89604539481934 L914.2588836139766,231.79713127702487 L929.6157085576548,497.12124672058064 L571.9157719004988,519.2201608383751 L556.5589469568207,253.89604539481934 Z" fill="#d8f999" fill-opacity="0.643"/>
		</g>
		<g transform="matrix(0.715497211,0,0,0.692539045,279.550959467,197.555709409)">
			<path d="M678.761358325497,314.4025003767601 L765.0803356215481,314.4025003767601 L765.0803356215481,401.16218166073344 L678.761358325497,401.16218166073344 L678.761358325497,314.4025003767601 Z" fill="#bbf451" fill-opacity="0.469"/>
		</g>
		<g transform="matrix(0.715497211,0,0,0.692539045,279.550959467,197.555709409)">
			<path d="M825.9655881190833,295.3127124638853 L891.9389659743192,295.3127124638853 L891.9389659743192,382.0723937478583 L825.9655881190833,382.0723937478583 L825.9655881190833,295.3127124638853 Z" fill="#bbf451" fill-opacity="0.469"/>
		</g>
		<g transform="matrix(0.715497211,0,0,0.692539045,279.550959467,197.555709409)">
			<path d="M685.7874531528366,549.9235934475237 L870.9374630659787,586.7504620348875 L843.5670895999765,733.6319397540678 L658.4170796868344,696.805071166704 L685.7874531528366,549.9235934475237 Z" fill="#d8f999"/>
		</g>
		<g transform="matrix(0.715497211,0,0,0.692539045,279.550959467,197.555709409)">
			<path d="M562.4217352013737,785.5026503551933 L966.9328075514289,785.5026503551933 L966.9328075514289,1164.049399808801 L562.4217352013737,1164.049399808801 L562.4217352013737,785.5026503551933 Z" fill="#d8f999" fill-opacity="0.434"/>
		</g>
	</g>
	<g>
		<animateTransform attributeName="transform" type="translate" values="0 0;0 -3;0 0;0 3;0 0" dur="3.2s" begin="1.4s" repeatCount="indefinite" additive="sum"/>
		<path d="M806.3461702903,434.8090611775334 L821.9806329324933,434.8090611775334 L821.9806329324933,457.61010859650446 L806.3461702903,457.61010859650446 L806.3461702903,434.8090611775334 Z" fill="#27272a" fill-opacity="0.478"/>
	</g>
	<g>
		<animateTransform attributeName="transform" type="translate" values="0 0;0 -4;0 0;0 4;0 0" dur="4.0s" begin="0.2s" repeatCount="indefinite" additive="sum"/>
		<path d="M877.7794882220197,426.2615239652014 L890.7534404558736,426.2615239652014 L890.7534404558736,449.06257138417243 L877.7794882220197,449.06257138417243 L877.7794882220197,426.2615239652014 Z" fill="#27272a" fill-opacity="0.478"/>
	</g>
	<g>
		<animateTransform attributeName="transform" type="translate" values="0 0;0 -3;0 0;0 3;0 0" dur="3.5s" begin="0.8s" repeatCount="indefinite" additive="sum"/>
		<path d="M629.9979172443128,155.866388012803 L772.8191576247326,155.866388012803 L772.8191576247326,274.5060778850948 L629.9979172443128,274.5060778850948 L629.9979172443128,155.866388012803 Z" fill="#c4b4ff" fill-opacity="0.454"/>
	</g>
	<g>
		<animateTransform attributeName="transform" type="translate" values="0 0;0 -5;0 0;0 5;0 0" dur="2.7s" begin="1.1s" repeatCount="indefinite" additive="sum"/>
		<path d="M520.3912604822684,93.87288330337536 L702.1052914295398,93.87288330337536 L702.1052914295398,236.51849414975402 L520.3912604822684,236.51849414975402 L520.3912604822684,93.87288330337536 Z" fill="#c4b4ff" fill-opacity="0.762"/>
	</g>
	<g>
		<animateTransform attributeName="transform" type="translate" values="0 0;0 -4;0 0;0 4;0 0" dur="4.1s" begin="0.5s" repeatCount="indefinite" additive="sum"/>
		<path d="M448.9806402920608,155.86638801280344 L591.8018806724813,155.86638801280344 L591.8018806724813,274.5060778850957 L448.9806402920608,274.5060778850957 L448.9806402920608,155.86638801280344 Z" fill="#c4b4ff" fill-opacity="0.785"/>
	</g>
	<g>
		<animateTransform attributeName="transform" type="translate" values="0 0;0 -3;0 0;0 3;0 0" dur="3.3s" begin="1.0s" repeatCount="indefinite" additive="sum"/>
		<path d="M595.6138133137081,153.79516501707826 L611.2482759559011,153.79516501707826 L611.2482759559011,176.5962124360492 L595.6138133137081,176.5962124360492 L595.6138133137081,153.79516501707826 Z" fill="#27272a" fill-opacity="0.478"/>
	</g>
	<g>
		<animateTransform attributeName="transform" type="translate" values="0 0;0 -4;0 0;0 4;0 0" dur="3.8s" begin="0.6s" repeatCount="indefinite" additive="sum"/>
		<path d="M667.0471312454276,145.24762780474623 L680.0210834792815,145.24762780474623 L680.0210834792815,168.04867522371717 L667.0471312454276,168.04867522371717 L667.0471312454276,145.24762780474623 Z" fill="#27272a" fill-opacity="0.478"/>
	</g>
</g></g></svg>
